<!-- Generated by IcoMoon.io -->
<svg version="1.1" xmlns="http://www.w3.org/2000/svg" width="82" height="32" viewBox="0 0 32 32">
 <symbol id="icon-facebooks" viewBox="0 0 32 32">
   <path d="M21.33 5.312h2.922v-5.088c-1.232-0.143-2.66-0.224-4.107-0.224-0.052 0-0.104 0-0.157 0l0.008-0c-4.211 0-7.098 2.65-7.098 7.52v4.48h-4.648v5.688h4.648v14.312h5.699v-14.31h4.459l0.709-5.688h-5.168v-3.922c0-1.643 0.443-2.768 2.733-2.768z"></path>
 </symbol>
 <symbol id="icon-instagrams" viewBox="0 0 32 32">
   <path d="M31.968 9.408c-0.074-1.701-0.349-2.869-0.742-3.882-0.424-1.111-1.054-2.059-1.85-2.837l-0.001-0.001c-0.78-0.792-1.724-1.419-2.778-1.827l-0.054-0.018c-1.019-0.394-2.181-0.667-3.882-0.742-1.712-0.082-2.256-0.101-6.602-0.101-4.344 0-4.888 0.019-6.595 0.094-1.699 0.074-2.869 0.349-3.88 0.742-1.112 0.424-2.060 1.054-2.839 1.85l-0.001 0.001c-0.791 0.78-1.418 1.724-1.825 2.778l-0.018 0.054c-0.395 1.019-0.669 2.181-0.744 3.882-0.082 1.712-0.101 2.256-0.101 6.602 0 4.344 0.019 4.888 0.094 6.595 0.075 1.701 0.35 2.869 0.744 3.882 0.426 1.11 1.055 2.057 1.849 2.837l0.001 0.001c0.8 0.813 1.77 1.443 2.832 1.843 1.019 0.395 2.182 0.67 3.882 0.744 1.707 0.075 2.251 0.094 6.595 0.094 4.346 0 4.89-0.019 6.595-0.094 1.701-0.074 2.869-0.349 3.882-0.742 2.157-0.85 3.833-2.526 4.664-4.628l0.019-0.055c0.394-1.019 0.669-2.182 0.744-3.882 0.075-1.707 0.093-2.251 0.093-6.595s-0.006-4.888-0.080-6.595zM29.088 22.474c-0.070 1.563-0.333 2.406-0.55 2.97-0.552 1.399-1.64 2.486-3.004 3.024l-0.036 0.012c-0.56 0.219-1.411 0.482-2.968 0.55-1.688 0.075-2.194 0.094-6.464 0.094-4.269 0-4.782-0.019-6.464-0.094-1.563-0.069-2.406-0.331-2.97-0.55-0.721-0.269-1.334-0.676-1.836-1.192l-0.001-0.001c-0.517-0.503-0.924-1.117-1.184-1.803l-0.011-0.034c-0.218-0.563-0.48-1.413-0.549-2.97-0.075-1.688-0.094-2.195-0.094-6.464 0-4.27 0.019-4.784 0.094-6.464 0.069-1.563 0.331-2.406 0.549-2.97 0.269-0.722 0.678-1.337 1.198-1.837l0.002-0.002c0.504-0.517 1.119-0.923 1.806-1.182l0.034-0.011c0.56-0.219 1.411-0.48 2.968-0.55 1.688-0.074 2.195-0.093 6.464-0.093 4.275 0 4.782 0.019 6.464 0.093 1.563 0.069 2.406 0.331 2.97 0.55 0.693 0.256 1.325 0.662 1.837 1.194 0.531 0.52 0.938 1.144 1.195 1.84 0.218 0.56 0.48 1.411 0.549 2.968 0.075 1.688 0.094 2.194 0.094 6.464 0 4.269-0.019 4.768-0.094 6.458z"></path>
   <path d="M16.059 7.782c-4.539 0.002-8.218 3.682-8.219 8.221v0c0 0 0 0.001 0 0.002 0 4.541 3.681 8.222 8.222 8.222s8.222-3.681 8.222-8.222c0-4.541-3.681-8.222-8.222-8.222-0.001 0-0.001 0-0.002 0h0zM16.059 21.334c-2.945-0-5.332-2.388-5.332-5.333s2.388-5.333 5.333-5.333c0 0 0.001 0 0.001 0h-0c2.946 0 5.334 2.388 5.334 5.334s-2.388 5.334-5.334 5.334v0zM26.525 7.458c0 1.060-0.86 1.92-1.92 1.92s-1.92-0.86-1.92-1.92v0c0-1.060 0.86-1.92 1.92-1.92s1.92 0.86 1.92 1.92v0z"></path>
 </symbol>
 <symbol id="icon-linkedins" viewBox="0 0 32 32">
   <path d="M31.992 32h0.008v-11.738c0-5.741-1.235-10.163-7.947-10.163-3.227 0-5.392 1.77-6.277 3.45h-0.093v-2.914h-6.365v21.363h6.627v-10.578c0-2.786 0.528-5.48 3.978-5.48 3.398 0 3.45 3.179 3.45 5.658v10.402h6.619zM0.528 10.635h6.635v21.365h-6.635v-21.365zM3.843 0c-2.123 0-3.843 1.721-3.843 3.843v0c0 2.12 1.722 3.878 3.843 3.878 2.12 0 3.842-1.757 3.842-3.878s-1.72-3.841-3.841-3.843h-0z"></path>
 </symbol>
 <symbol id="icon-twitters" viewBox="0 0 32 32">
   <path d="M32 6.078c-1.1 0.493-2.376 0.857-3.713 1.028l-0.068 0.007c1.36-0.817 2.382-2.078 2.873-3.579l0.013-0.046c-1.197 0.722-2.591 1.273-4.076 1.573l-0.084 0.014c-1.2-1.279-2.9-2.076-4.787-2.076-3.622 0-6.558 2.936-6.558 6.558 0 0.001 0 0.003 0 0.004v-0c0 0.52 0.043 1.021 0.152 1.496-5.454-0.266-10.28-2.88-13.522-6.861-0.564 0.949-0.899 2.092-0.902 3.313v0.001c0 2.272 1.171 4.286 2.914 5.451-1.091-0.030-2.107-0.325-2.994-0.823l0.033 0.017v0.072c0.003 3.165 2.236 5.807 5.213 6.44l0.043 0.008c-0.499 0.136-1.071 0.215-1.662 0.215-0.020 0-0.041-0-0.061-0l0.003 0c-0.419 0-0.843-0.024-1.242-0.112 0.85 2.598 3.261 4.509 6.13 4.57-2.215 1.746-5.045 2.8-8.122 2.8-0.004 0-0.008 0-0.013 0h0.001c-0.018 0-0.040 0-0.062 0-0.531 0-1.055-0.034-1.569-0.099l0.061 0.006c2.826 1.846 6.287 2.944 10.004 2.944 0.021 0 0.042-0 0.063-0h-0.003c12.072 0 18.672-10 18.672-18.669 0-0.288-0.010-0.57-0.024-0.848 1.299-0.936 2.39-2.064 3.258-3.355l0.030-0.047z"></path>
 </symbol>
 <symbol id="icon-map" viewBox="0 0 32 32">
   <path fill="none" stroke="#9da4bd" style="stroke: var(--color1, #9da4bd)" stroke-linejoin="round" stroke-linecap="round" stroke-miterlimit="4" stroke-width="1.3333" d="M26.667 13.819c0 7.635-10.667 14.181-10.667 14.181s-10.667-6.547-10.667-14.181c0-5.423 4.776-9.819 10.667-9.819s10.667 4.396 10.667 9.819v0z"></path>
   <path fill="none" stroke="#9da4bd" style="stroke: var(--color1, #9da4bd)" stroke-linejoin="round" stroke-linecap="round" stroke-miterlimit="4" stroke-width="1.3333" d="M16 18.667c2.209 0 4-1.791 4-4s-1.791-4-4-4v0c-2.209 0-4 1.791-4 4s1.791 4 4 4v0z"></path>
 </symbol>
 <symbol id="icon-mail" viewBox="0 0 32 32">
   <path fill="none" stroke="#9da4bd" style="stroke: var(--color1, #9da4bd)" stroke-linejoin="round" stroke-linecap="round" stroke-miterlimit="4" stroke-width="1.3333" d="M6.4 6.667h19.2c1.32 0 2.4 1.049 2.4 2.333v14c0 1.283-1.080 2.333-2.4 2.333h-19.2c-1.32 0-2.4-1.051-2.4-2.333v-14c0-1.284 1.080-2.333 2.4-2.333z"></path>
   <path fill="none" stroke="#9da4bd" style="stroke: var(--color1, #9da4bd)" stroke-linejoin="round" stroke-linecap="round" stroke-miterlimit="4" stroke-width="1.3333" d="M26.667 9.333l-10.667 8-10.667-8"></path>
 </symbol>
 <symbol id="icon-phone" viewBox="0 0 32 32">
   <path fill="none" stroke="#9da4bd" style="stroke: var(--color1, #9da4bd)" stroke-linejoin="round" stroke-linecap="round" stroke-miterlimit="4" stroke-width="1.3333" d="M26.667 21.337v3.217c0 0.003 0 0.006 0 0.009 0 1.186-0.961 2.147-2.147 2.147-0.068 0-0.134-0.003-0.2-0.009l0.008 0.001c-3.481-0.388-6.626-1.563-9.338-3.343l0.081 0.050c-2.608-1.675-4.761-3.828-6.386-6.353l-0.050-0.083c-1.736-2.644-2.912-5.804-3.285-9.205l-0.008-0.095c-0.006-0.058-0.009-0.125-0.009-0.193 0-1.185 0.96-2.145 2.145-2.145h3.219c0.006-0 0.013-0 0.020-0 1.079 0 1.972 0.797 2.123 1.834l0.001 0.012c0.136 1.029 0.387 2.040 0.751 3.013 0.295 0.784 0.107 1.668-0.483 2.264l-1.363 1.361c1.555 2.7 3.736 4.881 6.353 6.392l0.083 0.044 1.363-1.361c0.388-0.383 0.92-0.619 1.509-0.619 0.271 0 0.53 0.050 0.769 0.142l-0.015-0.005c0.973 0.363 1.984 0.613 3.013 0.751 1.050 0.151 1.847 1.045 1.847 2.125 0 0.019-0 0.037-0.001 0.056l0-0.003z"></path>
 </symbol>
 <symbol id="icon-vectorclose" viewBox="0 0 32 32">
   <path  d="M18.16 16.010l12.639-12.641c0.224-0.264 0.361-0.609 0.361-0.985 0-0.843-0.683-1.526-1.526-1.526-0.377 0-0.721 0.136-0.987 0.362l0.002-0.002-12.639 12.641-12.641-12.655c-0.281-0.308-0.685-0.501-1.133-0.501-0.846 0-1.532 0.686-1.532 1.532 0 0.448 0.192 0.851 0.499 1.131l0.001 0.001 12.657 12.641-12.657 12.641c-0.332 0.282-0.54 0.699-0.54 1.165 0 0.843 0.683 1.526 1.526 1.526 0.466 0 0.883-0.209 1.163-0.538l0.002-0.002 12.657-12.641 12.641 12.641c0.264 0.224 0.609 0.361 0.985 0.361 0.843 0 1.526-0.683 1.526-1.526 0-0.377-0.136-0.721-0.362-0.987l0.002 0.002-12.641-12.641z"></path>
 </symbol>
 <symbol id="icon-user" viewBox="0 0 32 32">
   <path  d="M16 16c2.946 0 5.333-2.388 5.333-5.333s-2.388-5.333-5.333-5.333v0c-2.946 0-5.333 2.388-5.333 5.333s2.388 5.333 5.333 5.333v0zM16 18.667c-3.561 0-10.667 1.787-10.667 5.333v1.333c0 0.732 0.599 1.333 1.333 1.333h18.667c0.732 0 1.333-0.601 1.333-1.333v-1.333c0-3.547-7.108-5.333-10.667-5.333z"></path>
 </symbol>
 <symbol id="icon-modalphone" viewBox="0 0 32 32">
   <path  d="M24.882 19.774l-3.268-0.373c-0.090-0.011-0.194-0.018-0.3-0.018-0.707 0-1.347 0.287-1.81 0.75l-2.368 2.368c-3.669-1.894-6.585-4.81-8.427-8.372l-0.051-0.108 2.382-2.377c0.463-0.463 0.75-1.103 0.75-1.81 0-0.106-0.006-0.21-0.019-0.312l0.001 0.012-0.373-3.243c-0.155-1.287-1.24-2.276-2.557-2.276-0.001 0-0.002 0-0.003 0h-2.226c-1.454 0-2.663 1.209-2.574 2.661 0.683 10.987 9.47 19.762 20.444 20.444 1.452 0.089 2.663-1.12 2.663-2.574v-2.226c0-0.004 0-0.008 0-0.012 0-1.308-0.985-2.386-2.253-2.532l-0.012-0.001z"></path>
 </symbol>
 <symbol id="icon-modalemail" viewBox="0 0 32 32">
   <path  d="M26.667 5.333h-21.333c-1.467 0-2.652 1.2-2.652 2.667l-0.014 16c0 1.467 1.2 2.667 2.667 2.667h21.333c1.467 0 2.667-1.2 2.667-2.667v-16c0-1.467-1.2-2.667-2.667-2.667zM26.133 11.001l-9.426 5.892c-0.201 0.126-0.446 0.2-0.708 0.2s-0.506-0.075-0.713-0.204l0.006 0.003-9.426-5.892c-0.336-0.201-0.557-0.562-0.557-0.975 0-0.625 0.507-1.132 1.132-1.132 0.233 0 0.449 0.070 0.629 0.19l-0.004-0.003 8.933 5.586 8.933-5.588c0.176-0.118 0.392-0.188 0.624-0.188 0.625 0 1.132 0.507 1.132 1.132 0 0.413-0.221 0.775-0.552 0.972l-0.005 0.003z"></path>
 </symbol>
 <symbol id="icon-mastercard" viewBox="0 0 32 32">
   <path fill="#000" style="fill: var(--color1, #000)" d="M1.707 5.952h28.587c0.943 0 1.707 0.764 1.707 1.707v16.683c0 0.943-0.764 1.707-1.707 1.707h-28.587c-0.943 0-1.707-0.764-1.707-1.707v-16.683c0-0.943 0.764-1.707 1.707-1.707z"></path>
   <path fill="#d9222a" style="fill: var(--color2, #d9222a)" d="M18.518 16c0 4.23-3.429 7.659-7.659 7.659s-7.659-3.429-7.659-7.659c0-4.23 3.429-7.659 7.659-7.659s7.659 3.429 7.659 7.659z"></path>
   <path fill="#ee9f2d" style="fill: var(--color3, #ee9f2d)" d="M21.141 8.341c-1.979 0-3.782 0.751-5.141 1.983-0.277 0.251-0.535 0.522-0.773 0.81h1.547c0.212 0.257 0.406 0.528 0.584 0.811h-2.715c-0.163 0.26-0.31 0.531-0.441 0.811h3.597c0.123 0.263 0.231 0.533 0.324 0.811h-4.246c-0.089 0.264-0.163 0.535-0.223 0.811h4.691c0.113 0.523 0.172 1.065 0.172 1.622 0 0.851-0.139 1.669-0.395 2.433h-4.246c0.093 0.278 0.201 0.548 0.324 0.811h3.597c-0.131 0.28-0.279 0.551-0.441 0.811h-2.715c0.177 0.283 0.372 0.554 0.584 0.811h1.547c-0.238 0.289-0.496 0.56-0.774 0.811 1.359 1.232 3.162 1.982 5.141 1.982 4.23 0 7.659-3.429 7.659-7.659s-3.429-7.659-7.659-7.659z"></path>
   <path fill="#000" style="fill: var(--color1, #000)" d="M27.779 20.269c0-0.137 0.111-0.247 0.247-0.247s0.247 0.111 0.247 0.247c0 0.137-0.111 0.247-0.247 0.247s-0.247-0.111-0.247-0.247zM28.026 20.457c0.104 0 0.188-0.084 0.188-0.188s-0.084-0.188-0.188-0.188c-0.104 0-0.188 0.084-0.188 0.188s0.084 0.188 0.188 0.188zM27.993 20.378h-0.051v-0.217h0.092c0.019 0 0.039 0 0.056 0.011 0.018 0.012 0.028 0.033 0.028 0.055 0 0.024-0.014 0.047-0.038 0.056l0.040 0.096h-0.056l-0.033-0.086h-0.037v0.086zM27.993 20.255h0.028c0.011 0 0.021 0.001 0.031-0.004 0.008-0.005 0.013-0.015 0.013-0.025 0-0.008-0.005-0.018-0.012-0.022-0.009-0.006-0.023-0.004-0.032-0.004h-0.027v0.055z"></path>
   <path fill="#000" style="fill: var(--color1, #000)" d="M9.070 16.839c-0.087-0.010-0.126-0.013-0.186-0.013-0.471 0-0.71 0.162-0.71 0.481 0 0.197 0.116 0.322 0.298 0.322 0.339 0 0.583-0.323 0.597-0.79zM9.675 18.246h-0.689l0.016-0.327c-0.21 0.259-0.491 0.382-0.871 0.382-0.451 0-0.76-0.352-0.76-0.863 0-0.769 0.537-1.218 1.46-1.218 0.094 0 0.215 0.009 0.339 0.024 0.026-0.104 0.033-0.149 0.033-0.205 0-0.209-0.145-0.287-0.533-0.287-0.407-0.005-0.742 0.097-0.88 0.142 0.009-0.052 0.115-0.711 0.115-0.711 0.414-0.121 0.688-0.167 0.995-0.167 0.714 0 1.092 0.321 1.091 0.926 0.001 0.162-0.025 0.363-0.067 0.626-0.072 0.458-0.227 1.439-0.248 1.678z"></path>
   <path fill="#000" style="fill: var(--color1, #000)" d="M7.023 18.246h-0.831l0.476-2.986-1.063 2.986h-0.567l-0.070-2.969-0.501 2.969h-0.778l0.65-3.885h1.196l0.073 2.175 0.729-2.175h1.33l-0.643 3.885z"></path>
   <path fill="#000" style="fill: var(--color1, #000)" d="M22.169 16.839c-0.087-0.010-0.125-0.013-0.185-0.013-0.471 0-0.71 0.162-0.71 0.481 0 0.197 0.116 0.322 0.298 0.322 0.339 0 0.583-0.323 0.597-0.79zM22.774 18.246h-0.689l0.016-0.327c-0.21 0.259-0.491 0.382-0.871 0.382-0.451 0-0.759-0.352-0.759-0.863 0-0.769 0.537-1.218 1.46-1.218 0.094 0 0.215 0.009 0.338 0.024 0.026-0.104 0.033-0.149 0.033-0.205 0-0.209-0.145-0.287-0.533-0.287-0.407-0.005-0.742 0.097-0.88 0.142 0.009-0.052 0.116-0.711 0.116-0.711 0.414-0.121 0.687-0.167 0.995-0.167 0.714 0 1.092 0.321 1.092 0.926 0.001 0.162-0.025 0.363-0.067 0.626-0.072 0.458-0.227 1.439-0.248 1.678z"></path>
   <path fill="#000" style="fill: var(--color1, #000)" d="M13.37 18.198c-0.228 0.072-0.405 0.102-0.597 0.102-0.425 0-0.657-0.244-0.657-0.694-0.006-0.14 0.061-0.507 0.114-0.842 0.048-0.295 0.361-2.156 0.361-2.156h0.826l-0.097 0.478h0.499l-0.113 0.759h-0.501c-0.096 0.601-0.233 1.349-0.234 1.449 0 0.163 0.087 0.234 0.285 0.234 0.095 0 0.168-0.010 0.224-0.030l-0.11 0.7z"></path>
   <path fill="#000" style="fill: var(--color1, #000)" d="M15.904 18.173c-0.284 0.087-0.558 0.129-0.848 0.128-0.925-0.001-1.407-0.484-1.407-1.409 0-1.080 0.614-1.875 1.446-1.875 0.681 0 1.117 0.445 1.117 1.143 0 0.232-0.030 0.458-0.102 0.777h-1.646c-0.056 0.458 0.238 0.649 0.718 0.649 0.296 0 0.563-0.061 0.859-0.199l-0.137 0.786zM15.44 16.3c0.005-0.066 0.088-0.564-0.385-0.564-0.263 0-0.452 0.201-0.528 0.564h0.913z"></path>
   <path fill="#000" style="fill: var(--color1, #000)" d="M10.174 16.086c0 0.4 0.194 0.675 0.633 0.882 0.337 0.158 0.389 0.205 0.389 0.349 0 0.197-0.148 0.286-0.477 0.286-0.248 0-0.479-0.039-0.745-0.125 0 0-0.109 0.696-0.114 0.73 0.189 0.041 0.357 0.079 0.865 0.093 0.877 0 1.283-0.334 1.283-1.056 0-0.434-0.17-0.689-0.586-0.88-0.349-0.16-0.389-0.196-0.389-0.343 0-0.171 0.138-0.258 0.407-0.258 0.163 0 0.386 0.017 0.597 0.047l0.118-0.733c-0.215-0.034-0.542-0.062-0.732-0.062-0.93 0-1.252 0.486-1.249 1.069z"></path>
   <path fill="#000" style="fill: var(--color1, #000)" d="M19.948 15.099c0.231 0 0.446 0.061 0.743 0.21l0.136-0.843c-0.122-0.048-0.551-0.329-0.914-0.329-0.556 0-1.027 0.276-1.358 0.732-0.483-0.16-0.681 0.163-0.924 0.485l-0.216 0.050c0.016-0.106 0.031-0.211 0.026-0.318h-0.764c-0.104 0.978-0.289 1.968-0.434 2.947l-0.038 0.212h0.832c0.139-0.902 0.215-1.48 0.261-1.871l0.313-0.174c0.047-0.174 0.193-0.233 0.487-0.226-0.038 0.206-0.059 0.423-0.059 0.648 0 1.034 0.558 1.677 1.453 1.677 0.231 0 0.428-0.030 0.735-0.113l0.146-0.886c-0.276 0.136-0.502 0.199-0.706 0.199-0.483 0-0.776-0.357-0.776-0.947 0-0.855 0.435-1.455 1.056-1.455z"></path>
   <path fill="#fff" style="fill: var(--color4, #fff)" d="M7.262 18.016h-0.832l0.477-2.986-1.063 2.986h-0.567l-0.070-2.969-0.501 2.969h-0.778l0.65-3.884h1.196l0.034 2.405 0.807-2.405h1.291l-0.643 3.884z"></path>
   <path fill="#000" style="fill: var(--color1, #000)" d="M26.988 14.361l-0.184 1.123c-0.227-0.299-0.472-0.516-0.794-0.516-0.42 0-0.801 0.318-1.051 0.786-0.348-0.072-0.708-0.195-0.708-0.195l-0 0.003c0.028-0.262 0.039-0.421 0.037-0.476h-0.764c-0.104 0.978-0.289 1.968-0.433 2.947l-0.038 0.212h0.832c0.112-0.729 0.198-1.335 0.262-1.815 0.284-0.257 0.426-0.481 0.713-0.466-0.127 0.307-0.202 0.662-0.202 1.025 0 0.79 0.4 1.311 1.004 1.311 0.305 0 0.538-0.105 0.767-0.349l-0.039 0.294h0.787l0.633-3.884h-0.82zM25.948 17.516c-0.283 0-0.426-0.209-0.426-0.623 0-0.621 0.268-1.061 0.645-1.061 0.286 0 0.44 0.218 0.44 0.619 0 0.626-0.272 1.065-0.659 1.065z"></path>
   <path fill="#fff" style="fill: var(--color4, #fff)" d="M9.309 16.608c-0.087-0.010-0.126-0.013-0.185-0.013-0.471 0-0.71 0.162-0.71 0.481 0 0.196 0.116 0.322 0.298 0.322 0.339 0 0.583-0.323 0.597-0.79zM9.915 18.016h-0.689l0.016-0.327c-0.21 0.258-0.491 0.382-0.871 0.382-0.451 0-0.76-0.352-0.76-0.863 0-0.769 0.537-1.218 1.46-1.218 0.094 0 0.215 0.009 0.339 0.024 0.026-0.104 0.033-0.149 0.033-0.205 0-0.209-0.145-0.287-0.533-0.287-0.407-0.005-0.742 0.097-0.88 0.142 0.009-0.052 0.115-0.71 0.115-0.71 0.414-0.122 0.688-0.168 0.995-0.168 0.714 0 1.092 0.321 1.092 0.926 0.001 0.163-0.026 0.363-0.068 0.626-0.072 0.458-0.227 1.439-0.248 1.677z"></path>
   <path fill="#fff" style="fill: var(--color4, #fff)" d="M21.067 14.236l-0.136 0.843c-0.297-0.149-0.512-0.21-0.743-0.21-0.621 0-1.056 0.6-1.056 1.455 0 0.59 0.293 0.946 0.776 0.946 0.205 0 0.431-0.064 0.706-0.199l-0.146 0.885c-0.306 0.084-0.504 0.114-0.735 0.114-0.895 0-1.453-0.644-1.453-1.677 0-1.389 0.77-2.359 1.873-2.359 0.363 0 0.792 0.154 0.914 0.202z"></path>
   <path fill="#fff" style="fill: var(--color4, #fff)" d="M22.408 16.608c-0.087-0.010-0.125-0.013-0.185-0.013-0.471 0-0.71 0.162-0.71 0.481 0 0.196 0.116 0.322 0.298 0.322 0.339 0 0.583-0.323 0.597-0.79zM23.013 18.016h-0.689l0.016-0.327c-0.21 0.258-0.491 0.382-0.871 0.382-0.451 0-0.76-0.352-0.76-0.863 0-0.769 0.537-1.218 1.46-1.218 0.094 0 0.215 0.009 0.339 0.024 0.026-0.104 0.033-0.149 0.033-0.205 0-0.209-0.145-0.287-0.533-0.287-0.407-0.005-0.742 0.097-0.88 0.142 0.009-0.052 0.115-0.71 0.115-0.71 0.414-0.122 0.688-0.168 0.995-0.168 0.714 0 1.092 0.321 1.092 0.926 0.001 0.163-0.025 0.363-0.067 0.626-0.072 0.458-0.227 1.439-0.248 1.677z"></path>
   <path fill="#fff" style="fill: var(--color4, #fff)" d="M13.61 17.968c-0.228 0.072-0.405 0.103-0.597 0.103-0.425 0-0.657-0.244-0.657-0.694-0.006-0.14 0.061-0.507 0.114-0.842 0.048-0.295 0.36-2.156 0.36-2.156h0.826l-0.096 0.478h0.424l-0.113 0.759h-0.426c-0.096 0.601-0.233 1.349-0.235 1.449 0 0.163 0.087 0.234 0.285 0.234 0.095 0 0.168-0.009 0.224-0.029l-0.11 0.699z"></path>
   <path fill="#fff" style="fill: var(--color4, #fff)" d="M16.144 17.943c-0.284 0.087-0.558 0.129-0.848 0.128-0.925-0.001-1.407-0.484-1.407-1.409 0-1.080 0.614-1.875 1.446-1.875 0.681 0 1.117 0.445 1.117 1.143 0 0.232-0.030 0.458-0.102 0.777h-1.646c-0.056 0.458 0.238 0.649 0.718 0.649 0.296 0 0.563-0.061 0.859-0.199l-0.137 0.786zM15.679 16.069c0.005-0.066 0.088-0.564-0.385-0.564-0.263 0-0.451 0.201-0.528 0.564h0.913z"></path>
   <path fill="#fff" style="fill: var(--color4, #fff)" d="M10.413 15.855c0 0.4 0.194 0.675 0.633 0.882 0.337 0.158 0.389 0.205 0.389 0.349 0 0.197-0.149 0.286-0.477 0.286-0.248 0-0.479-0.039-0.745-0.125 0 0-0.109 0.696-0.114 0.73 0.189 0.041 0.357 0.079 0.865 0.093 0.877 0 1.283-0.334 1.283-1.056 0-0.434-0.169-0.689-0.586-0.881-0.348-0.16-0.389-0.196-0.389-0.343 0-0.171 0.139-0.258 0.407-0.258 0.163 0 0.386 0.018 0.598 0.048l0.118-0.733c-0.215-0.034-0.541-0.062-0.732-0.062-0.93 0-1.252 0.486-1.249 1.069z"></path>
   <path fill="#fff" style="fill: var(--color4, #fff)" d="M27.414 18.016h-0.787l0.039-0.294c-0.228 0.244-0.462 0.349-0.767 0.349-0.604 0-1.004-0.521-1.004-1.311 0-1.051 0.62-1.937 1.353-1.937 0.323 0 0.567 0.132 0.794 0.431l0.185-1.123h0.82l-0.633 3.884zM26.187 17.286c0.387 0 0.659-0.439 0.659-1.065 0-0.401-0.155-0.619-0.441-0.619-0.377 0-0.645 0.44-0.645 1.061 0 0.413 0.143 0.622 0.426 0.622z"></path>
   <path fill="#fff" style="fill: var(--color4, #fff)" d="M23.762 14.857c-0.104 0.978-0.289 1.968-0.434 2.947l-0.038 0.212h0.832c0.297-1.932 0.369-2.309 0.836-2.262 0.074-0.395 0.213-0.742 0.316-0.916-0.348-0.073-0.543 0.124-0.797 0.498 0.020-0.162 0.057-0.319 0.050-0.479h-0.764z"></path>
   <path fill="#fff" style="fill: var(--color4, #fff)" d="M16.917 14.857c-0.104 0.978-0.289 1.968-0.434 2.947l-0.038 0.212h0.832c0.297-1.932 0.369-2.309 0.835-2.262 0.075-0.395 0.213-0.742 0.316-0.916-0.348-0.073-0.543 0.124-0.797 0.498 0.020-0.162 0.057-0.319 0.050-0.479h-0.764z"></path>
   <path fill="#fff" style="fill: var(--color4, #fff)" d="M27.779 17.768c0-0.137 0.111-0.247 0.247-0.247s0.247 0.11 0.247 0.247c0 0.136-0.111 0.247-0.247 0.247s-0.247-0.111-0.247-0.247zM28.026 17.956c0.104 0 0.188-0.084 0.188-0.188s-0.084-0.188-0.188-0.188c-0.104 0-0.188 0.084-0.188 0.188s0.084 0.188 0.188 0.188zM27.993 17.876h-0.051v-0.217h0.092c0.019 0 0.039 0 0.055 0.011 0.018 0.012 0.028 0.033 0.028 0.054 0 0.025-0.014 0.047-0.038 0.056l0.040 0.095h-0.056l-0.033-0.086h-0.037v0.086zM27.993 17.754h0.028c0.011 0 0.022 0.001 0.031-0.004s0.013-0.015 0.013-0.025c0-0.008-0.005-0.018-0.012-0.022-0.009-0.005-0.023-0.004-0.033-0.004h-0.027v0.055z"></path>
</symbol>
<symbol id="icon-visa" viewBox="0 0 32 32">
  <path fill="#fff" style="fill: var(--color4, #fff)" d="M0 0h32v32h-32v-32z"></path>
  <path fill="#315881" style="fill: var(--color5, #315881)" d="M31.53 8.435c0-1.492-0.775-2.232-2.279-2.232h-26.501c-0.752 0-1.304 0.2-1.668 0.611-0.411 0.411-0.611 0.94-0.611 1.621v15.13c0 0.681 0.2 1.198 0.611 1.621 0.423 0.411 0.963 0.611 1.668 0.611h26.501c1.504 0 2.279-0.752 2.279-2.232v-15.13zM29.25 6.556c1.245 0 1.88 0.634 1.88 1.879v15.13c0 1.257-0.634 1.879-1.88 1.879h-26.501c-0.599 0-1.057-0.176-1.398-0.529-0.352-0.341-0.529-0.811-0.529-1.351v-15.13c0-1.245 0.623-1.879 1.926-1.879h26.501z"></path>
  <path fill="#315881" style="fill: var(--color5, #315881)" d="M2.961 7.425c-0.505 0-0.822 0.082-0.998 0.258-0.153 0.2-0.223 0.529-0.223 1.010v3.277h28.521v-3.277c0-0.857-0.423-1.269-1.269-1.269h-26.031z"></path>
  <path fill="#dfa43b" style="fill: var(--color6, #dfa43b)" d="M1.739 23.26c0 0.869 0.411 1.316 1.222 1.316h26.031c0.846 0 1.269-0.446 1.269-1.316v-3.277h-28.521v3.277z"></path>
  <path fill="#315881" style="fill: var(--color5, #315881)" d="M11.184 13.369c0 0.153-0.024 0.27-0.082 0.352l-2.056 3.583-0.129-4.37h-3.289l1.104 0.529c0.317 0.2 0.482 0.458 0.482 0.787l0.305 4.64h1.609l3.853-5.956h-1.973c0.117 0.106 0.176 0.27 0.176 0.435zM24.481 13.11l0.129-0.176h-2.009c0.070 0.070 0.094 0.106 0.094 0.129-0.024 0.094-0.071 0.153-0.094 0.223l-2.925 5.333c-0.070 0.094-0.141 0.176-0.223 0.27h1.656l-0.082-0.176c0-0.153 0.082-0.434 0.258-0.834l0.352-0.658h1.703c0.071 0.552 0.118 1.010 0.141 1.351l-0.141 0.317h2.056l-0.305-0.446-0.611-5.333zM23.26 16.388h-1.222l1.045-2.009 0.176 2.009zM18.185 12.629c-0.634 0-1.175 0.176-1.656 0.529-0.529 0.305-0.787 0.693-0.787 1.175 0 0.552 0.188 1.034 0.564 1.398l1.14 0.787c0.411 0.294 0.611 0.552 0.611 0.787 0 0.223-0.106 0.423-0.305 0.576s-0.423 0.223-0.705 0.223c-0.411 0-1.116-0.294-2.091-0.834v1.092c0.764 0.458 1.504 0.693 2.22 0.693 0.681 0 1.257-0.188 1.751-0.611 0.529-0.388 0.787-0.846 0.787-1.351 0-0.423-0.188-0.811-0.611-1.222l-1.093-0.787c-0.364-0.294-0.564-0.552-0.564-0.752 0-0.458 0.27-0.693 0.822-0.693 0.376 0 0.928 0.211 1.668 0.658l0.223-1.139c-0.623-0.353-1.269-0.529-1.974-0.529zM13.815 18.89c-0.024-0.247-0.071-0.47-0.094-0.705l1.492-4.816 0.352-0.435h-2.15c0.024 0.106 0.047 0.247 0.071 0.352 0 0.106 0 0.235-0.024 0.352l-1.492 4.769-0.305 0.482 2.15-0z"></path>
</symbol>

</svg>
